<?xml version="1.0" encoding="utf-8"?>
<!-- Generator: Adobe Illustrator 21.1.0, SVG Export Plug-In . SVG Version: 6.00 Build 0)  -->
<svg version="1.1" id="Layer_1" xmlns="http://www.w3.org/2000/svg" xmlns:xlink="http://www.w3.org/1999/xlink" x="0px" y="0px"
	 viewBox="0 0 566.9 186.8" style="enable-background:new 0 0 566.9 186.8;" xml:space="preserve">
<style type="text/css">
	.st0{clip-path:url(#SVGID_2_);fill:#C81010;}
	.st1{clip-path:url(#SVGID_2_);fill:#006FB9;}
	.st2{clip-path:url(#SVGID_2_);fill:#FFFFFF;}
</style>
<g>
	<defs>
		<rect id="SVGID_1_" width="566.9" height="186.8"/>
	</defs>
	<clipPath id="SVGID_2_">
		<use xlink:href="#SVGID_1_"  style="overflow:visible;"/>
	</clipPath>
	<path class="st0" d="M177.6,186.8V0h381.9c4.1,0,7.5,3.4,7.5,7.5v171.9c0,4.1-3.4,7.5-7.5,7.5H177.6z"/>
	<path class="st1" d="M177.6,186.8V0H7.5C3.4,0,0,3.4,0,7.5v171.9c0,4.1,3.4,7.5,7.5,7.5H177.6z"/>
	<path class="st2" d="M316.5,93.7v-0.3c0-33.1,24.2-60.1,58.8-60.1c21.2,0,34,7.3,44.4,17.9l-15.8,18.8
		c-8.7-8.1-17.5-13.1-28.8-13.1c-19,0-32.7,16.3-32.7,36.2v0.3c0,19.9,13.4,36.5,32.7,36.5c12.9,0,20.8-5.3,29.7-13.6l15.7,16.4
		c-11.6,12.8-24.4,20.8-46.2,20.8C341.1,153.5,316.5,127.1,316.5,93.7"/>
	<path class="st2" d="M479.1,33.9h23.4l49.3,116.5h-26.5l-10.5-25.9h-48.7l-10.5,25.9h-25.8L479.1,33.9z M505.8,102l-15.3-37.5
		L475.2,102H505.8z"/>
	<polygon class="st2" points="196.5,34.3 219.8,34.3 273.8,105.5 273.8,34.3 298.8,34.3 298.8,150 277.2,150 221.5,76.4 221.5,150 
		196.5,150 	"/>
	<path class="st2" d="M115.6,80.9c-2.8-15.9-9.5-24.3-24.4-24.3c-19.8,0-24.8,15.5-25.5,24.3H115.6z M65.7,100.7
		c0.9,20.1,10.2,28.9,27.4,28.9c12.3,0,22.2-7.7,24.1-14.8h27c-8.7,27.1-27,38.4-52.2,38.4c-35.2,0-57-24.7-57-60
		C35.1,59,58.1,33,92.1,33c38,0,56.5,32.7,54.1,67.7H65.7z"/>
</g>
</svg>
